HIERARCHY
ROOT Hips
{
	OFFSET 0.000000 0.000000 0.000000 
	CHANNELS 6 Xposition Yposition Zposition Yrotation Zrotation Xrotation 
	JOINT Lumbar
	{
		OFFSET 0.000000 0.000000 0.000000 
		CHANNELS 3 Zrotation Xrotation Yrotation
		JOINT Neck
		{
			OFFSET 0.000000 0.445665 0.000000 
			CHANNELS 3 Zrotation Xrotation Yrotation
			End Site
			{
				OFFSET 0.000000 0.227535 0.000000 
			}
		}
		JOINT RightShoulder
		{
			OFFSET 0.019635 0.377685 0.194865 
			CHANNELS 3 Zrotation Xrotation Yrotation
			JOINT RightElbow
			{
				OFFSET 0.000000 -0.243375 0.000000 
				CHANNELS 2 Zrotation Yrotation
				JOINT RightWrist
				{
					OFFSET 0.000000 -0.264825 0.000000 
					CHANNELS 2 Zrotation Xrotation
					End Site
					{
						OFFSET 0.006600 -0.176220 0.000990 
					}
				}
			}
		}
		JOINT LeftShoulder
		{
			OFFSET 0.019635 0.377685 -0.194865 
			CHANNELS 3 Zrotation Xrotation Yrotation
			JOINT LeftElbow
			{
				OFFSET 0.000000 -0.243375 0.000000 
				CHANNELS 2 Zrotation Yrotation
				JOINT LeftWrist
				{
					OFFSET 0.000000 -0.264825 0.000000 
					CHANNELS 2 Zrotation Xrotation
					End Site
					{
						OFFSET 0.006600 -0.176220 -0.000990 
					}
				}
			}
		}
	}
	JOINT RightHip
	{
		OFFSET 0.052140 -0.069960 0.075570 
		CHANNELS 3 Zrotation Xrotation Yrotation
		JOINT RightKnee
		{
			OFFSET 0.000000 -0.402270 0.000000 
			CHANNELS 1 Zrotation
			JOINT RightAnkle
			{
				OFFSET 0.000000 -0.404085 0.000000 
				CHANNELS 3 Zrotation Xrotation Yrotation
				End Site
				{
					OFFSET 0.204105 -0.089430 0.008415 
				}
			}
		}
	}
	JOINT LeftHip
	{
		OFFSET 0.052140 -0.069960 -0.075570 
		CHANNELS 3 Zrotation Xrotation Yrotation
		JOINT LeftKnee
		{
			OFFSET 0.000000 -0.402270 0.000000 
			CHANNELS 1 Zrotation
			JOINT LeftAnkle
			{
				OFFSET 0.000000 -0.404085 0.000000 
				CHANNELS 3 Zrotation Xrotation Yrotation
				End Site
				{
					OFFSET 0.204105 -0.089430 -0.008415 
				}
			}
		}
	}
}
MOTION
Frames: 25
Frame Time: 0.02
-0.00056 -8e-05 -0.00041 -182.10312 -39.33587 -4.17421 47.31842 2.86608 -2.19584 -10.795 -2.44684 -0.14237 56.68591 -102.1875 64.17037 10.74627 89.29758 5.44542 -0.26881 25.50613 106.90123 -64.15552 8.35174 -89.69439 4.17148 -0.2451 45.08031 -3.6717 -4.80898 -22.02567 -7.15756 -3.48154 -2.52642 48.03112 8.78065 -0.5878 -27.1288 -7.5614 4.3171 2.96989
-0.0004 -7e-05 -0.00032 -182.09051 -39.33448 -4.1702 47.30633 2.87457 -2.18536 -10.78423 -2.43912 -0.14269 56.67766 -102.19312 64.17037 10.75695 89.29736 5.45759 -0.26459 25.52679 106.88921 -64.15706 8.35289 -89.68147 4.17843 -0.24138 45.08662 -3.67949 -4.81896 -22.02956 -7.16009 -3.48993 -2.5269 48.03887 8.78815 -0.53354 -27.13092 -7.55691 4.31062 2.96441
-0.00024 -6e-05 -0.00024 -182.07795 -39.3331 -4.1662 47.29426 2.88305 -2.17492 -10.7735 -2.4314 -0.143 56.66959 -102.19868 64.17037 10.76762 89.29715 5.46972 -0.26038 25.54746 106.87721 -64.15859 8.35405 -89.66859 4.18535 -0.23769 45.09294 -3.68725 -4.82889 -22.03345 -7.16261 -3.49831 -2.52738 48.04662 8.79563 -0.47942 -27.13304 -7.55243 4.30415 2.95894
-8e-05 -6e-05 -0.00015 -182.06539 -39.33172 -4.1622 47.28221 2.89151 -2.16447 -10.76276 -2.4237 -0.14332 56.66139 -102.20427 64.17037 10.77827 89.29693 5.48186 -0.25616 25.56807 106.86523 -64.16013 8.3552 -89.65571 4.19227 -0.23398 45.09923 -3.69501 -4.83883 -22.03733 -7.16513 -3.50668 -2.52786 48.05434 8.8031 -0.42533 -27.13516 -7.54796 4.29768 2.95347
7e-05 -5e-05 -7e-05 -182.05279 -39.33033 -4.15819 47.27017 2.89999 -2.154 -10.75199 -2.41601 -0.14363 56.65295 -102.20993 64.17037 10.78894 89.29672 5.49406 -0.25193 25.58865 106.85324 -64.16167 8.35634 -89.64281 4.1992 -0.23025 45.10552 -3.7028 -4.84884 -22.04122 -7.16766 -3.51507 -2.52834 48.06205 8.8106 -0.37112 -27.13727 -7.54346 4.29121 2.94799
0.00023 -4e-05 2e-05 -182.04029 -39.32896 -4.15423 47.258 2.90847 -2.1436 -10.74135 -2.40822 -0.14395 56.64566 -102.21529 64.17037 10.7996 89.2965 5.50603 -0.24777 25.60951 106.84121 -64.16318 8.35754 -89.62997 4.20609 -0.22662 45.1119 -3.71051 -4.8586 -22.04511 -7.17019 -3.52342 -2.52884 48.06988 8.81805 -0.3172 -27.13941 -7.53901 4.28475 2.94255
0.00039 -3e-05 0.0001 -182.02761 -39.32756 -4.15017 47.24611 2.91693 -2.13308 -10.73045 -2.40063 -0.14427 56.63606 -102.22124 64.17037 10.81026 89.29629 5.51843 -0.24347 25.62979 106.82928 -64.16475 8.35862 -89.61702 4.21309 -0.22279 45.11808 -3.71837 -4.86883 -22.04899 -7.1727 -3.53183 -2.52929 48.07746 8.82558 -0.26275 -27.1415 -7.53449 4.27826 2.93704
0.00054 -3e-05 0.00019 -182.0151 -39.32619 -4.1462 47.23397 2.92541 -2.12266 -10.71981 -2.39286 -0.14458 56.62862 -102.22665 64.17037 10.82093 89.29607 5.53045 -0.23931 25.65058 106.81726 -64.16627 8.35981 -89.60416 4.21994 -0.21915 45.12444 -3.72609 -4.87867 -22.05287 -7.17523 -3.54019 -2.52978 48.08527 8.83304 -0.20878 -27.14363 -7.53003 4.2718 2.93159
0.0007 -2e-05 0.00027 -182.00278 -39.32486 -4.14234 47.2215 2.93393 -2.11239 -10.70938 -2.38485 -0.1449 56.62372 -102.23137 64.17037 10.83158 89.29585 5.54196 -0.23528 25.67213 106.8051 -64.16772 8.36111 -89.59144 4.22677 -0.21573 45.13106 -3.73363 -4.88787 -22.05678 -7.17777 -3.54849 -2.53033 48.09335 8.8404 -0.15539 -27.14584 -7.52564 4.26539 2.92623
0.00085 -1e-05 0.00036 -181.98928 -39.32329 -4.13783 47.21083 2.94228 -2.10133 -10.69743 -2.37818 -0.14521 56.60389 -102.23998 64.17037 10.84226 89.29567 5.55628 -0.23039 25.68971 106.79368 -64.16953 8.36169 -89.578 4.23421 -0.211 45.13627 -3.74218 -4.90026 -22.06059 -7.18024 -3.55716 -2.53059 48.09987 8.84829 -0.09864 -27.14766 -7.52084 4.25871 2.92037
0.00101 -0 0.00043 -181.97833 -39.32223 -4.13469 47.19642 2.95093 -2.09191 -10.68887 -2.36872 -0.14554 56.61577 -102.24043 64.17038 10.85291 89.29539 5.56476 -0.22736 25.71541 106.78075 -64.1706 8.36388 -89.56604 4.24007 -0.20904 45.14443 -3.74864 -4.9062 -22.06459 -7.18285 -3.56501 -2.53142 48.10965 8.85508 -0.04902 -27.15026 -7.5169 4.2526 2.91557
0.00119 0 0.00046 -181.97401 -39.32246 -4.13548 47.17126 2.96096 -2.08726 -10.68807 -2.35116 -0.14588 56.71413 -102.21767 64.17038 10.86335 89.29485 5.55635 -0.2291 25.76559 106.763 -64.16955 8.36984 -89.55865 4.24391 -0.21468 45.16096 -3.7489 -4.89177 -22.06927 -7.18602 -3.57088 -2.53403 48.12887 8.85882 -0.01871 -27.15528 -7.51533 4.2479 2.91363
0.00136 1e-05 0.00047 -181.97229 -39.3232 -4.13762 47.14244 2.97118 -2.08423 -10.69095 -2.33087 -0.14624 56.84458 -102.18683 64.17038 10.87378 89.2942 5.54225 -0.23275 25.82352 106.74381 -64.16776 8.37755 -89.5527 4.24577 -0.22307 45.18037 -3.74711 -4.87128 -22.0741 -7.1893 -3.57588 -2.53716 48.15124 8.86151 0.00451 -27.16103 -7.51462 4.24377 2.91275
0.00153 2e-05 0.00049 -181.96963 -39.32379 -4.13904 47.11562 2.98096 -2.08023 -10.69312 -2.31208 -0.14659 56.96053 -102.16023 64.17039 10.88432 89.29356 5.53128 -0.23576 25.87641 106.72574 -64.16636 8.38488 -89.54575 4.247 -0.23024 45.19832 -3.74658 -4.85539 -22.07876 -7.19241 -3.58109 -2.53989 48.17185 8.86466 0.03063 -27.16628 -7.51354 4.2395 2.91143
0.00171 3e-05 0.00051 -181.96603 -39.32407 -4.14091 47.08736 2.99225 -2.07711 -10.6912 -2.29216 -0.14693 57.07561 -102.13129 64.17038 10.89445 89.2931 5.51788 -0.23788 25.93563 106.70586 -64.16472 8.39044 -89.54013 4.25458 -0.23742 45.21704 -3.74477 -4.83199 -22.08384 -7.196 -3.58706 -2.54328 48.19393 8.8677 0.05758 -27.17227 -7.51241 4.23483 2.91002
0.00188 3e-05 0.00051 -181.9649 -39.32508 -4.14217 47.06126 3.00041 -2.0727 -10.69871 -2.27401 -0.14731 57.20084 -102.1052 64.1704 10.90541 89.29224 5.50832 -0.24223 25.98365 106.6892 -64.16341 8.4001 -89.53224 4.24858 -0.24505 45.2347 -3.74502 -4.82242 -22.08807 -7.19863 -3.59125 -2.54544 48.21362 8.87094 0.08177 -27.17687 -7.51154 4.23103 2.90896
0.00201 4e-05 0.0005 -181.97079 -39.32808 -4.1412 47.04149 3.00028 -2.06302 -10.73119 -2.26079 -0.14777 57.33974 -102.09025 64.17052 10.91896 89.29022 5.5096 -0.25288 25.99775 106.68358 -64.16313 8.42081 -89.51638 4.20438 -0.25489 45.24937 -3.75248 -4.85573 -22.09008 -7.19859 -3.59061 -2.54389 48.22609 8.87322 0.09443 -27.17741 -7.51165 4.23017 2.90914
0.00212 4e-05 0.00047 -181.97886 -39.33155 -4.13957 47.02389 2.99692 -2.05227 -10.77309 -2.24955 -0.14831 57.48879 -102.0783 64.17066 10.93347 89.28782 5.51507 -0.26558 26.00063 106.68092 -64.1631 8.44565 -89.49841 4.14657 -0.26487 45.26249 -3.76191 -4.90258 -22.09121 -7.19757 -3.58821 -2.54111 48.23575 8.87607 0.10563 -27.17653 -7.51191 4.23002 2.90953
0.00224 4e-05 0.00044 -181.98543 -39.33503 -4.1384 47.00597 2.99479 -2.04285 -10.81079 -2.23779 -0.1488 57.6377 -102.06402 64.17078 10.9471 89.28568 5.51946 -0.27696 26.00923 106.67572 -64.16313 8.46839 -89.48231 4.09611 -0.27359 45.27626 -3.76971 -4.94108 -22.09265 -7.197 -3.58667 -2.53902 48.24695 8.87983 0.12116 -27.17634 -7.51182 4.22912 2.9095
0.00237 4e-05 0.00042 -181.99446 -39.33855 -4.1367 46.98609 2.99368 -2.02979 -10.84823 -2.22436 -0.14924 57.76956 -102.05317 64.17094 10.96185 89.2832 5.52044 -0.29008 26.01501 106.67549 -64.16288 8.49178 -89.46248 4.04168 -0.28708 45.2915 -3.78044 -4.98853 -22.09446 -7.19643 -3.58486 -2.53639 48.25828 8.87864 0.12083 -27.17599 -7.51296 4.23012 2.91089
0.00247 4e-05 0.00038 -181.99857 -39.34086 -4.13581 46.96964 2.98965 -2.02418 -10.88848 -2.21491 -0.14993 57.93803 -102.03649 64.17103 10.97544 89.28131 5.52923 -0.30001 26.0245 106.66564 -64.1627 8.51523 -89.44981 3.99104 -0.29111 45.30182 -3.78568 -5.02078 -22.09529 -7.1956 -3.58321 -2.53457 48.2672 8.88787 0.15345 -27.17559 -7.51153 4.22726 2.90935
0.0025 4e-05 0.0003 -181.9912 -39.35107 -4.13856 46.97328 2.97874 -2.03825 -10.93344 -2.21604 -0.15023 58.21309 -101.99904 64.17095 10.97828 89.28119 5.5617 -0.30074 26.04309 106.62824 -64.16502 8.53405 -89.45806 3.96519 -0.26519 45.31214 -3.77447 -5.00641 -22.09363 -7.19444 -3.58236 -2.53532 48.2831 8.92591 0.27575 -27.17574 -7.50331 4.21404 2.89986
0.0025 3e-05 0.0002 -181.97846 -39.35845 -4.14197 46.97876 2.96497 -2.05997 -10.98104 -2.22109 -0.15097 58.52327 -101.95655 64.1708 10.98178 89.28157 5.60116 -0.29815 26.06731 106.58103 -64.16516 8.55365 -89.47344 3.94163 -0.23059 45.31568 -3.75783 -4.9765 -22.09104 -7.19303 -3.58175 -2.53691 48.29479 8.97431 0.43136 -27.17586 -7.49244 4.19683 2.88742
0.00251 2e-05 0.00011 -181.96628 -39.35903 -4.14423 46.97545 2.95224 -2.07906 -11.02787 -2.22432 -0.15226 58.81163 -101.91881 64.17068 10.98919 89.28178 5.63559 -0.29703 26.09043 106.53862 -64.16708 8.57514 -89.48513 3.90974 -0.20227 45.31285 -3.74422 -4.95464 -22.08881 -7.19163 -3.5811 -2.53807 48.29916 9.01792 0.57317 -27.17573 -7.48252 4.18107 2.87619
0.00253 1e-05 1e-05 -181.96154 -39.39162 -4.14988 47.00367 2.94037 -2.09493 -11.07317 -2.22783 -0.15049 59.12399 -101.87016 64.17054 10.9769 89.28207 5.67866 -0.29623 26.10364 106.49524 -64.17315 8.58658 -89.49866 3.90789 -0.16353 45.34737 -3.7283 -4.92928 -22.08668 -7.1906 -3.5801 -2.53939 48.34005 9.06216 0.71033 -27.17652 -7.47358 4.16674 2.86542
